<svg xmlns="http://www.w3.org/2000/svg" viewBox="0 0 48 48" width="48" height="48">
  <circle cx="24" cy="24" r="24" fill="#25D366" />
  <path fill="#fff" d="M24 12c-6.6 0-12 5.4-12 12 0 2.1.6 4.1 1.6 5.9L12 36l6.3-1.6c1.7.9 3.7 1.4 5.7 1.4 6.6 0 12-5.4 12-12s-5.4-12-12-12zm0 21.8c-1.8 0-3.5-.5-5-1.4l-.4-.2-3.7 1 1-3.6-.2-.4c-1-1.6-1.5-3.4-1.5-5.2 0-5.4 4.4-9.8 9.8-9.8s9.8 4.4 9.8 9.8-4.4 9.8-9.8 9.8zm5.4-7.3c-.3-.1-1.8-.9-2-1-.3-.1-.5-.1-.7.1-.2.3-.8 1-.9 1.1-.2.2-.3.2-.6.1-1.8-.9-3-1.6-4.2-3.6-.3-.5.3-.5.9-1.6.1-.2 0-.4 0-.5 0-.1-.7-1.6-.9-2.2-.2-.6-.5-.5-.7-.5h-.6c-.2 0-.5.1-.8.4-.3.3-1 1-1 2.5s1.1 2.9 1.2 3.1c.2.2 2.1 3.3 5.2 4.6 1.9.8 2.7.9 3.6.8.6-.1 1.8-.7 2-1.5.3-.7.3-1.4.2-1.5-.1-.1-.3-.2-.6-.3z" />
</svg>
