<svg xmlns="http://www.w3.org/2000/svg" viewBox="0 0 999.88 177.77" fill="none"><path d="M534.86,84.45h34.51l-65.26,88.51h-34.51l65.26-88.51Z" fill="#ff2300"/><g fill="#000000"><path d="M935.38,177.02c-35.26,0-58.51-13.5-67.51-35.26l24.75-17.25c3.75,19.5,21,30,43.51,30,21,0,33.75-8.25,33.75-18,0-15-16.5-15.75-36.75-16.5-21-.75-59.26-1.5-59.26-34.5,0-27,27.75-41.26,59.26-41.26s55.51,12.75,63.76,30l-25.5,15.75c-3.75-14.25-18.75-23.25-38.26-23.25s-30.75,6-30.75,16.5c0,11.25,14.25,12,34.5,12.75,20.25,1.5,63.01,1.5,63.01,37.51,0,27-28.5,43.51-64.51,43.51ZM790.61,177.77c-42.01,0-69.01-25.5-69.01-66.76s27-67.51,69.01-67.51c45.01,0,71.26,29.25,67.51,75.76h-84.76c-9,0-14.25-3.75-14.25-14.25h-9v5.25c0,28.5,15,45.01,40.51,45.01,20.25,0,34.5-11.25,39.76-30l21.75,19.5c-11.25,21-33,33-61.51,33ZM750.85,97.51h79.51c-3-20.25-18.75-31.5-39.76-31.5s-35.26,11.25-39.76,31.5ZM621.08,174.02V48.01h29.26v30h6.75c3.75-32.25,20.25-30,48.01-30h13.5v24.75h-15c-36,0-52.51,21.75-52.51,60.76v40.51h-30.01ZM334.55,174.02V5.25h29.25v72.76h6.75c1.5-24,19.5-33,42.75-33,27,0,43.51,16.5,43.51,46.51v82.51h-30v-76.51c0-18.75-10.5-29.25-26.25-29.25-22.5,0-36.75,19.5-36.75,54.76v51.01h-29.25ZM190.53,174.02V48.01h30v30h6c2.25-24,20.25-33,43.5-33,27,0,43.51,16.5,43.51,46.51v82.51h-30v-76.51c0-18.75-11.25-29.25-26.25-29.25-22.5,0-36.75,19.5-36.75,54.76v51.01h-30ZM139.52,174.02V48.01h30v126.02h-30ZM0,174.02V5.25h32.25v143.27h89.26v25.5H0ZM599.33,48.01h-118.52v26.25h88.51v99.76h30.01V48.01ZM137.27,0v33.75h33.75V0h-33.75Z"/></g></svg>